<?xml version="1.0" encoding="utf-8"?>
<!-- Generator: Adobe Illustrator 26.0.2, SVG Export Plug-In . SVG Version: 6.00 Build 0)  -->
<svg version="1.1" id="Layer_1" xmlns="http://www.w3.org/2000/svg" xmlns:xlink="http://www.w3.org/1999/xlink" x="0px" y="0px"
	 viewBox="0 0 154 154" style="enable-background:new 0 0 154 154;" xml:space="preserve">
<style type="text/css">
	.st0{fill:#6AC17B;}
</style>
<path class="st0" d="M58.8,119.4v33.7L35,143.2L58.8,119.4z"/>
<path class="st0" d="M33.7,94.3L9.9,118.1L0,94.3H33.7z"/>
<path class="st0" d="M9.9,35l23.8,23.8H0L9.9,35z"/>
<path class="st0" d="M94.3,153.1v-33.7l23.8,23.8L94.3,153.1z"/>
<path class="st0" d="M119.4,94.3h33.7l-9.9,23.8L119.4,94.3z"/>
<path class="st0" d="M143.2,35l9.9,23.8h-33.7L143.2,35z"/>
<path class="st0" d="M94.3,0l23.8,9.9L94.3,33.7V0z"/>
<path class="st0" d="M58.8,0v33.7L35,9.9L58.8,0z"/>
<path class="st0" d="M59,34h35.4l25,25v35.4l-25,25H59l-25-25V59L59,34z"/>
</svg>
