<svg width="162" height="55" viewBox="0 0 162 55" fill="none" xmlns="http://www.w3.org/2000/svg">
<path d="M7.98071 22.6995L7.98071 31.3165H16.5994V22.6995H7.98071Z" fill="#6AC17B"/>
<path d="M0.00351786 33.5221L3.30176 41.4832L11.2644 38.1856L7.96618 30.2245L0.00351786 33.5221Z" fill="#6AC17B"/>
<path d="M16.609 10.4982L10.5146 16.5914L16.609 22.6845L22.7034 16.5914L16.609 10.4982Z" fill="#6AC17B"/>
<path d="M3.29824 12.5246L0 20.4857L7.96266 23.7832L11.2609 15.8222L3.29824 12.5246Z" fill="#6AC17B"/>
<path d="M10.5062 37.4137L16.6006 43.5068L22.6949 37.4137L16.6006 31.3205L10.5062 37.4137Z" fill="#6AC17B"/>
<path d="M12.541 50.7103L20.5037 54.0079L23.8019 46.0468L15.8392 42.7493L12.541 50.7103Z" fill="#6AC17B"/>
<path d="M31.3157 37.4129H22.697V46.0299H31.3157V37.4129Z" fill="#6AC17B"/>
<path d="M38.1919 42.7384L30.2292 46.036L33.5275 53.9971L41.4901 50.6995L38.1919 42.7384Z" fill="#6AC17B"/>
<path d="M37.4139 31.3197L31.3196 37.4129L37.4139 43.5061L43.5083 37.4129L37.4139 31.3197Z" fill="#6AC17B"/>
<path d="M46.0512 30.2195L42.7529 38.1806L50.7156 41.4782L54.0138 33.5171L46.0512 30.2195Z" fill="#6AC17B"/>
<path d="M46.0554 31.3165V22.6995H37.4367V31.3165H46.0554Z" fill="#6AC17B"/>
<path d="M54.0202 20.4785L50.7219 12.5174L42.7593 15.815L46.0575 23.7761L54.0202 20.4785Z" fill="#6AC17B"/>
<path d="M43.5089 16.5906L37.4146 10.4974L31.3202 16.5906L37.4146 22.6837L43.5089 16.5906Z" fill="#6AC17B"/>
<path d="M41.4944 3.29759L33.5317 0L30.2335 7.96109L38.1962 11.2587L41.4944 3.29759Z" fill="#6AC17B"/>
<path d="M22.7087 16.5914H31.3274V7.97435L22.7087 7.97435V16.5914Z" fill="#6AC17B"/>
<path d="M15.8315 11.2622L23.7942 7.9646L20.496 0.00351228L12.5333 3.3011L15.8315 11.2622Z" fill="#6AC17B"/>
<path d="M69.0269 39.0308V14.2349H78.9003C81.1282 14.2349 82.8403 14.868 84.0363 16.1341C85.2324 17.4003 85.8304 19.1354 85.8304 21.3395C85.8304 23.5436 85.2324 25.2787 84.0363 26.5449C82.8403 27.8111 81.1282 28.4442 78.9003 28.4442H72.0053V39.0308H69.0151H69.0269ZM72.017 25.818H78.912C80.0963 25.818 81.0227 25.5132 81.6676 24.8918C82.3243 24.2705 82.6409 23.4029 82.6409 22.2657V20.4133C82.6409 19.2761 82.3126 18.3968 81.6676 17.7872C81.0227 17.1658 80.0963 16.861 78.912 16.861H72.017V25.818Z" fill="#6AC17B"/>
<path d="M88.8674 39.0308V36.5453H92.3501V16.7203H88.8674V14.2349H98.8229V16.7203H95.3403V36.5453H98.8229V39.0308H88.8674Z" fill="#6AC17B"/>
<path d="M103.22 39.0308V14.2349H113.094C115.322 14.2349 117.034 14.868 118.23 16.1341C119.426 17.4003 120.024 19.1354 120.024 21.3395C120.024 23.5436 119.426 25.2787 118.23 26.5449C117.034 27.8111 115.322 28.4442 113.094 28.4442H106.199V39.0308H103.208H103.22ZM106.21 25.818H113.105C114.29 25.818 115.204 25.5132 115.861 24.8918C116.518 24.2705 116.834 23.4029 116.834 22.2657V20.4133C116.834 19.2761 116.506 18.3968 115.861 17.7872C115.216 17.1658 114.29 16.861 113.105 16.861H106.21V25.818Z" fill="#00534A"/>
<path d="M124.105 39.0308V14.2349H133.978C136.206 14.2349 137.918 14.868 139.114 16.1341C140.31 17.4003 140.908 19.1354 140.908 21.3395C140.908 23.5436 140.31 25.2787 139.114 26.5449C137.918 27.8111 136.206 28.4442 133.978 28.4442H127.083V39.0308H124.093H124.105ZM127.095 25.818H133.99C135.174 25.818 136.089 25.5132 136.745 24.8918C137.402 24.2705 137.719 23.4029 137.719 22.2657V20.4133C137.719 19.2761 137.39 18.3968 136.745 17.7872C136.1 17.1658 135.174 16.861 133.99 16.861H127.095V25.818Z" fill="#00534A"/>
<path d="M152.482 39.4528C150.465 39.4528 148.753 39.0659 147.334 38.3039C145.915 37.5418 144.707 36.475 143.711 35.1267L145.915 33.2744C146.783 34.435 147.756 35.3143 148.823 35.924C149.89 36.5219 151.145 36.8267 152.587 36.8267C154.358 36.8267 155.718 36.4046 156.656 35.5488C157.594 34.693 158.063 33.5557 158.063 32.1372C158.063 30.9531 157.712 30.0386 156.996 29.4055C156.281 28.7607 155.108 28.2566 153.479 27.8814L151.45 27.4242C149.175 26.8966 147.44 26.1111 146.244 25.056C145.047 24.0008 144.449 22.5119 144.449 20.6009C144.449 19.5106 144.649 18.5375 145.047 17.6934C145.458 16.8376 146.009 16.1341 146.736 15.5597C147.463 14.9969 148.319 14.5631 149.328 14.27C150.336 13.9769 151.438 13.8245 152.646 13.8245C154.522 13.8245 156.117 14.1645 157.465 14.8562C158.802 15.5362 159.94 16.5445 160.854 17.8692L158.615 19.4989C157.934 18.5492 157.102 17.8106 156.129 17.2596C155.155 16.7203 153.948 16.4389 152.505 16.4389C150.922 16.4389 149.668 16.7789 148.753 17.4472C147.838 18.1154 147.393 19.1354 147.393 20.4837C147.393 21.6678 147.78 22.5588 148.542 23.1684C149.316 23.7781 150.477 24.247 152.048 24.6105L154.077 25.0677C156.516 25.607 158.286 26.4394 159.365 27.5531C160.456 28.6669 161.007 30.1441 161.007 31.9965C161.007 33.1337 160.807 34.1654 160.42 35.0916C160.033 36.0177 159.471 36.8032 158.732 37.4363C157.993 38.0811 157.102 38.5735 156.047 38.9253C154.991 39.277 153.807 39.4528 152.47 39.4528H152.482Z" fill="#00534A"/>
</svg>
