<svg width="22" height="22" viewBox="0 0 22 22" fill="none" xmlns="http://www.w3.org/2000/svg">
<path d="M21.5 0.5H0.5V21.5H21.5V0.5ZM16.8917 8.09967C16.8917 8.2 16.8917 8.29917 16.8917 8.49983C16.8917 12.2997 13.9913 16.7003 8.69117 16.7003C7.09167 16.7003 5.59133 16.1998 4.29167 15.4007C4.49117 15.4007 4.79217 15.4007 4.99167 15.4007C6.29133 15.4007 7.59217 14.9002 8.592 14.2002C7.29233 14.2002 6.2925 13.3007 5.89233 12.2005C6.09183 12.2005 6.2925 12.3008 6.39283 12.3008C6.69267 12.3008 6.89333 12.3008 7.19317 12.2005C5.8935 11.9007 4.89367 10.8005 4.89367 9.4005C5.29383 9.6 5.694 9.70033 6.19333 9.80067C5.393 9.10067 4.89367 8.30033 4.89367 7.3005C4.89367 6.8 4.994 6.30067 5.29383 5.9005C6.69383 7.60033 8.79383 8.80083 11.1937 8.9C11.1937 8.7005 11.0933 8.49983 11.0933 8.2C11.0933 6.6005 12.393 5.29967 13.9937 5.29967C14.794 5.29967 15.5932 5.5995 16.0937 6.19917C16.7937 6.09883 17.3933 5.799 17.8938 5.49917C17.6943 6.19917 17.1938 6.69967 16.5942 7.09867C17.1938 6.99833 17.6943 6.89917 18.294 6.59817C17.8915 7.20017 17.3922 7.6995 16.8917 8.09967Z" fill="#388547"/>
</svg>
