<?xml version="1.0" encoding="utf-8"?>
<!-- Generator: Adobe Illustrator 26.0.2, SVG Export Plug-In . SVG Version: 6.00 Build 0)  -->
<svg version="1.1" id="Layer_1" xmlns="http://www.w3.org/2000/svg" xmlns:xlink="http://www.w3.org/1999/xlink" x="0px" y="0px"
	 viewBox="0 0 157 157" style="enable-background:new 0 0 157 157;" xml:space="preserve">
<style type="text/css">
	.st0{clip-path:url(#SVGID_00000161622373755941455120000010780795053567163062_);}
	.st1{fill:#6AC17B;}
</style>
<g>
	<defs>
		<rect id="SVGID_1_" width="157" height="157"/>
	</defs>
	<clipPath id="SVGID_00000052799122493233904390000004554434137025386909_">
		<use xlink:href="#SVGID_1_"  style="overflow:visible;"/>
	</clipPath>
	<g style="clip-path:url(#SVGID_00000052799122493233904390000004554434137025386909_);">
		<path class="st1" d="M0,60.7v35.6h35.6V60.7H0z"/>
		<path class="st1" d="M35.6,10.4L10.4,35.6l25.2,25.2l25.2-25.2L35.6,10.4z"/>
		<path class="st1" d="M10.4,121.4l25.2,25.2l25.2-25.2L35.6,96.3L10.4,121.4z"/>
		<path class="st1" d="M96.3,121.4H60.7V157h35.6V121.4z"/>
		<path class="st1" d="M121.4,96.3l-25.2,25.2l25.2,25.2l25.2-25.2L121.4,96.3z"/>
		<path class="st1" d="M157,96.3V60.7h-35.6v35.6H157z"/>
		<path class="st1" d="M146.6,35.6l-25.2-25.2L96.3,35.6l25.2,25.2L146.6,35.6z"/>
		<path class="st1" d="M60.7,35.6h35.6V0H60.7V35.6z"/>
	</g>
</g>
</svg>
