<svg width="319" height="566" viewBox="0 0 319 566" fill="none" xmlns="http://www.w3.org/2000/svg">
<path d="M83.4199 237.481V327.721H173.66V237.481H83.4199Z" fill="#6AC17B" fill-opacity="0.15"/>
<path d="M0.00571094 350.815L34.5391 434.186L117.91 399.652L83.3766 316.281L0.00571094 350.815Z" fill="#6AC17B" fill-opacity="0.15"/>
<path d="M173.662 109.851L109.853 173.66L173.662 237.469L237.472 173.66L173.662 109.851Z" fill="#6AC17B" fill-opacity="0.15"/>
<path d="M34.5304 131.01L-0.00292969 214.381L83.368 248.914L117.901 165.543L34.5304 131.01Z" fill="#6AC17B" fill-opacity="0.15"/>
<path d="M109.851 391.528L173.66 455.337L237.469 391.528L173.66 327.718L109.851 391.528Z" fill="#6AC17B" fill-opacity="0.15"/>
<path d="M131.004 530.659L214.375 565.192L248.908 481.822L165.537 447.288L131.004 530.659Z" fill="#6AC17B" fill-opacity="0.15"/>
<path d="M327.71 391.53H237.47V481.77H327.71V391.53Z" fill="#6AC17B" fill-opacity="0.15"/>
<path d="M399.652 447.279L316.281 481.812L350.814 565.183L434.185 530.65L399.652 447.279Z" fill="#6AC17B" fill-opacity="0.15"/>
<path d="M434.18 34.5285L350.809 -0.00488281L316.276 83.366L399.647 117.899L434.18 34.5285Z" fill="#6AC17B" fill-opacity="0.15"/>
<path d="M237.48 173.66H327.72V83.4202L237.48 83.4202V173.66Z" fill="#6AC17B" fill-opacity="0.15"/>
<path d="M165.542 117.904L248.913 83.3711L214.379 0.000209264L131.008 34.5336L165.542 117.904Z" fill="#6AC17B" fill-opacity="0.15"/>
</svg>
