<svg width="55" height="55" viewBox="0 0 55 55" fill="none" xmlns="http://www.w3.org/2000/svg">
<path d="M7.98071 22.6995L7.98071 31.3165H16.5994V22.6995H7.98071Z" fill="#6AC17B"/>
<path d="M0.00351786 33.5221L3.30176 41.4832L11.2644 38.1856L7.96618 30.2245L0.00351786 33.5221Z" fill="#6AC17B"/>
<path d="M16.609 10.4982L10.5146 16.5914L16.609 22.6845L22.7034 16.5914L16.609 10.4982Z" fill="#6AC17B"/>
<path d="M3.29824 12.5246L0 20.4857L7.96266 23.7832L11.2609 15.8222L3.29824 12.5246Z" fill="#6AC17B"/>
<path d="M10.5062 37.4137L16.6006 43.5068L22.6949 37.4137L16.6006 31.3205L10.5062 37.4137Z" fill="#6AC17B"/>
<path d="M12.541 50.7103L20.5037 54.0079L23.8019 46.0468L15.8392 42.7493L12.541 50.7103Z" fill="#6AC17B"/>
<path d="M31.3157 37.4129H22.697V46.0299H31.3157V37.4129Z" fill="#6AC17B"/>
<path d="M38.1919 42.7384L30.2292 46.036L33.5275 53.9971L41.4901 50.6995L38.1919 42.7384Z" fill="#6AC17B"/>
<path d="M37.4139 31.3197L31.3196 37.4129L37.4139 43.5061L43.5083 37.4129L37.4139 31.3197Z" fill="#6AC17B"/>
<path d="M46.0512 30.2195L42.7529 38.1806L50.7156 41.4782L54.0138 33.5171L46.0512 30.2195Z" fill="#6AC17B"/>
<path d="M46.0554 31.3165V22.6995H37.4367V31.3165H46.0554Z" fill="#6AC17B"/>
<path d="M54.0202 20.4785L50.7219 12.5174L42.7593 15.815L46.0575 23.7761L54.0202 20.4785Z" fill="#6AC17B"/>
<path d="M43.5089 16.5906L37.4146 10.4974L31.3202 16.5906L37.4146 22.6837L43.5089 16.5906Z" fill="#6AC17B"/>
<path d="M41.4944 3.29759L33.5317 0L30.2335 7.96109L38.1962 11.2587L41.4944 3.29759Z" fill="#6AC17B"/>
<path d="M22.7087 16.5914H31.3274V7.97435L22.7087 7.97435V16.5914Z" fill="#6AC17B"/>
<path d="M15.8315 11.2622L23.7942 7.9646L20.496 0.00351228L12.5333 3.3011L15.8315 11.2622Z" fill="#6AC17B"/>
</svg>
