<svg width="361" height="107" viewBox="0 0 361 107" fill="none" xmlns="http://www.w3.org/2000/svg">
<path d="M15.624 44.9404V62.0604H32.5095V44.9404H15.624Z" fill="#6AC17B"/>
<path d="M0 66.4372L6.50188 82.1954L22.1258 75.6781L15.6239 59.9199L0 66.4372Z" fill="#6AC17B"/>
<path d="M32.5093 20.8164L20.573 32.8782L32.5093 44.94L44.4456 32.8782L32.5093 20.8164Z" fill="#6AC17B"/>
<path d="M6.50188 24.8047L0 40.5629L15.6239 47.0801L22.1258 31.322L6.50188 24.8047Z" fill="#6AC17B"/>
<path d="M20.573 74.1214L32.5093 86.1832L44.4456 74.1214L32.5093 62.0596L20.573 74.1214Z" fill="#6AC17B"/>
<path d="M24.552 100.483L40.1759 107L46.5808 91.2419L31.0539 84.7246L24.552 100.483Z" fill="#6AC17B"/>
<path d="M61.4283 74.1221H44.4458V91.2421H61.3313V74.1221H61.4283Z" fill="#6AC17B"/>
<path d="M74.8202 84.7246L59.1963 91.2419L65.6982 107L81.3221 100.483L74.8202 84.7246Z" fill="#6AC17B"/>
<path d="M73.3645 62.0596L61.4282 74.1214L73.3645 86.1832L85.3008 74.1214L73.3645 62.0596Z" fill="#6AC17B"/>
<path d="M90.2499 59.9199L83.748 75.6781L99.372 82.1954L105.874 66.4372L90.2499 59.9199Z" fill="#6AC17B"/>
<path d="M90.25 62.0604V44.9404H73.3645V62.0604H90.25Z" fill="#6AC17B"/>
<path d="M105.874 40.5629L99.372 24.8047L83.748 31.322L90.2499 47.0801L105.874 40.5629Z" fill="#6AC17B"/>
<path d="M85.3008 32.8782L73.3645 20.8164L61.4282 32.8782L73.3645 44.94L85.3008 32.8782Z" fill="#6AC17B"/>
<path d="M81.3221 6.51727L65.6982 0L59.1963 15.7582L74.8202 22.2755L81.3221 6.51727Z" fill="#6AC17B"/>
<path d="M44.4458 32.8782H61.3313V15.8555H44.4458V32.8782Z" fill="#6AC17B"/>
<path d="M31.0539 22.2755L46.5808 15.7582L40.1759 0L24.552 6.51727L31.0539 22.2755Z" fill="#6AC17B"/>
<path d="M131.493 48.7333V9.33789H147.02C150.514 9.33789 153.231 10.3106 155.075 12.3533C156.918 14.3961 157.889 17.1197 157.889 20.6215C157.889 24.1233 156.918 26.847 155.075 28.8897C153.231 30.9324 150.514 31.9052 147.02 31.9052H136.151V48.7333H131.493ZM136.151 27.7224H147.02C148.864 27.7224 150.32 27.2361 151.29 26.2633C152.357 25.2906 152.843 23.9288 152.843 22.0806V19.1624C152.843 17.4115 152.357 15.9524 151.29 14.9797C150.222 14.007 148.864 13.5206 147.02 13.5206H136.151V27.7224Z" fill="#6AC17B"/>
<path d="M162.644 48.7333V44.7452H168.078V13.2288H162.644V9.33789H178.268V13.3261H172.834V44.7452H178.268V48.7333H162.644Z" fill="#6AC17B"/>
<path d="M185.255 48.7333V9.33789H200.782C204.276 9.33789 206.993 10.3106 208.837 12.3533C210.68 14.3961 211.651 17.1197 211.651 20.6215C211.651 24.1233 210.68 26.847 208.837 28.8897C206.993 30.9324 204.276 31.9052 200.782 31.9052H189.913V48.7333H185.255ZM189.913 27.7224H200.782C202.626 27.7224 204.081 27.2361 205.052 26.2633C206.119 25.2906 206.605 23.9288 206.605 22.0806V19.1624C206.605 17.4115 206.119 15.9524 205.052 14.9797C203.984 14.007 202.626 13.5206 200.782 13.5206H189.913V27.7224Z" fill="white"/>
<path d="M218.056 48.7333V9.33789H233.583C237.076 9.33789 239.793 10.3106 241.637 12.3533C243.481 14.3961 244.451 17.1197 244.451 20.6215C244.451 24.1233 243.481 26.847 241.637 28.8897C239.793 30.9324 237.076 31.9052 233.583 31.9052H222.714V48.7333H218.056ZM222.714 27.7224H233.583C235.426 27.7224 236.882 27.2361 237.852 26.2633C238.92 25.2906 239.405 23.9288 239.405 22.0806V19.1624C239.405 17.4115 238.92 15.9524 237.852 14.9797C236.785 14.007 235.426 13.5206 233.583 13.5206H222.714V27.7224Z" fill="white"/>
<path d="M262.598 49.3174C259.396 49.3174 256.776 48.7338 254.544 47.4693C252.312 46.2047 250.371 44.5511 248.818 42.4111L252.312 39.4929C253.671 41.3411 255.223 42.7029 256.873 43.6756C258.523 44.6483 260.561 45.1347 262.793 45.1347C265.607 45.1347 267.742 44.4538 269.197 43.092C270.653 41.7302 271.429 39.882 271.429 37.6447C271.429 35.7965 270.847 34.3374 269.78 33.2674C268.615 32.2947 266.771 31.4193 264.248 30.8356L261.046 30.1547C257.455 29.2793 254.738 28.112 252.894 26.3611C251.05 24.7074 250.08 22.3729 250.08 19.2602C250.08 17.5093 250.371 15.9529 251.05 14.5911C251.73 13.2293 252.603 12.062 253.671 11.1865C254.835 10.3111 256.194 9.63016 257.746 9.1438C259.299 8.65744 261.046 8.46289 262.987 8.46289C265.898 8.46289 268.421 9.04653 270.556 10.1165C272.691 11.1865 274.438 12.8402 275.893 14.8829L272.4 17.5093C271.332 15.9529 270.071 14.7856 268.518 13.9102C266.965 13.0347 265.122 12.6456 262.793 12.6456C260.269 12.6456 258.329 13.2293 256.873 14.2993C255.417 15.3693 254.738 16.9256 254.738 19.1629C254.738 21.0111 255.32 22.4702 256.582 23.4429C257.746 24.4156 259.59 25.1938 262.113 25.7774L265.316 26.5556C269.1 27.4311 271.915 28.6956 273.661 30.5438C275.408 32.2947 276.282 34.6293 276.282 37.5474C276.282 39.2983 275.99 40.952 275.408 42.4111C274.826 43.8702 273.953 45.1347 272.788 46.1074C271.623 47.0802 270.265 47.8583 268.615 48.442C266.577 49.1229 264.733 49.3174 262.598 49.3174Z" fill="white"/>
<path d="M132.367 79.1798V67.3125H137.122C138.189 67.3125 138.966 67.6043 139.548 68.188C140.13 68.7716 140.421 69.647 140.421 70.717C140.421 71.787 140.13 72.5652 139.548 73.2461C138.966 73.8298 138.189 74.1216 137.122 74.1216H133.822V79.1798H132.367ZM133.822 72.857H137.122C137.704 72.857 138.092 72.6625 138.48 72.3707C138.869 72.0789 138.966 71.6898 138.966 71.1061V70.2307C138.966 69.647 138.772 69.258 138.48 68.9661C138.189 68.6743 137.704 68.4798 137.122 68.4798H133.822V72.857Z" fill="white"/>
<path d="M148.864 79.1796C148.379 79.1796 147.991 79.0823 147.797 78.7905C147.602 78.4987 147.408 78.2068 147.408 77.8177H147.311C147.117 78.4014 146.826 78.7905 146.341 79.0823C145.856 79.3741 145.371 79.4714 144.788 79.4714C143.818 79.4714 143.139 79.2768 142.653 78.7905C142.168 78.3041 141.877 77.6232 141.877 76.845C141.877 75.9696 142.168 75.3859 142.75 74.8996C143.333 74.4132 144.303 74.2187 145.565 74.2187H147.311V73.3432C147.311 72.7596 147.117 72.2732 146.826 71.8841C146.438 71.5923 145.953 71.3977 145.273 71.3977C144.788 71.3977 144.303 71.495 143.915 71.7868C143.527 71.9814 143.236 72.3705 143.041 72.7596L142.265 71.9814C142.459 71.495 142.847 71.1059 143.43 70.7168C144.012 70.3277 144.594 70.2305 145.371 70.2305C146.438 70.2305 147.214 70.5223 147.894 71.0087C148.476 71.495 148.767 72.2732 148.767 73.1487V78.0123H149.737V79.1796H148.864ZM144.982 78.3041C145.37 78.3041 145.662 78.3041 145.953 78.2068C146.244 78.1096 146.438 78.0123 146.729 77.915C146.923 77.7205 147.117 77.6232 147.214 77.4287C147.311 77.2341 147.408 77.0396 147.408 76.845V75.3859H145.565C144.788 75.3859 144.206 75.4832 143.818 75.6777C143.43 75.8723 143.236 76.2614 143.236 76.6505V77.0396C143.236 77.4287 143.43 77.8177 143.721 78.0123C144.012 78.2068 144.4 78.3041 144.982 78.3041Z" fill="white"/>
<path d="M154.687 79.4718C154.104 79.4718 153.522 79.3745 153.037 79.1799C152.552 78.9854 152.163 78.6936 151.775 78.3045C151.484 77.9154 151.193 77.429 150.999 76.8454C150.805 76.2618 150.708 75.6781 150.708 74.8999C150.708 74.1218 150.805 73.5381 150.999 72.9545C151.193 72.3708 151.387 71.8845 151.775 71.4954C152.066 71.1063 152.552 70.8145 153.037 70.6199C153.522 70.4254 154.104 70.3281 154.687 70.3281C155.56 70.3281 156.239 70.5227 156.821 70.9118C157.307 71.3009 157.695 71.7872 157.986 72.3709L156.821 72.9545C156.627 72.4681 156.433 72.1763 156.045 71.8845C155.657 71.5927 155.269 71.4954 154.687 71.4954C154.298 71.4954 153.91 71.5927 153.619 71.6899C153.328 71.7872 153.037 71.9818 152.843 72.2736C152.649 72.5654 152.455 72.7599 152.357 73.149C152.26 73.4408 152.163 73.8299 152.163 74.219V75.6781C152.163 76.4563 152.357 77.0399 152.746 77.6236C153.134 78.1099 153.813 78.4018 154.589 78.4018C155.657 78.4018 156.433 77.9154 156.919 76.8454L157.889 77.5263C157.598 78.2072 157.21 78.6936 156.627 79.0827C156.142 79.2772 155.463 79.4718 154.687 79.4718Z" fill="white"/>
<path d="M160.412 68.3827C160.121 68.3827 159.927 68.2855 159.733 68.1882C159.636 68.0909 159.539 67.8964 159.539 67.6046V67.41C159.539 67.2155 159.636 67.0209 159.733 66.8264C159.83 66.7291 160.121 66.6318 160.412 66.6318C160.703 66.6318 160.897 66.7291 161.092 66.8264C161.189 66.9237 161.286 67.1182 161.286 67.41V67.6046C161.286 67.7991 161.189 67.9937 161.092 68.1882C160.897 68.2855 160.703 68.3827 160.412 68.3827ZM159.733 70.4255H161.092V79.18H159.733V70.4255Z" fill="white"/>
<path d="M164.294 71.69H162.838V70.5227H164.294V68.7718C164.294 68.1882 164.488 67.7018 164.779 67.3127C165.07 66.9237 165.555 66.7291 166.235 66.7291H167.593V67.8964H165.749V70.5227H170.699V79.2773H169.34V71.69H165.749V79.2773H164.391V71.69H164.294ZM169.922 68.3827C169.631 68.3827 169.437 68.2855 169.243 68.1882C169.049 68.0909 169.049 67.8964 169.049 67.6046V67.41C169.049 67.2155 169.146 67.0209 169.243 66.8264C169.34 66.7291 169.631 66.6318 169.922 66.6318C170.213 66.6318 170.407 66.7291 170.602 66.8264C170.699 66.9237 170.796 67.1182 170.796 67.41V67.6046C170.796 67.7991 170.699 67.9937 170.602 68.1882C170.505 68.3827 170.213 68.3827 169.922 68.3827Z" fill="white"/>
<path d="M176.715 79.4718C176.133 79.4718 175.551 79.3745 175.066 79.1799C174.58 78.9854 174.192 78.6936 173.804 78.3045C173.513 77.9154 173.222 77.429 173.028 76.8454C172.834 76.2618 172.737 75.6781 172.737 74.8999C172.737 74.1218 172.834 73.5381 173.028 72.9545C173.222 72.3708 173.416 71.8845 173.804 71.4954C174.095 71.1063 174.58 70.8145 175.066 70.6199C175.551 70.4254 176.133 70.3281 176.715 70.3281C177.589 70.3281 178.268 70.5227 178.85 70.9118C179.336 71.3009 179.724 71.7872 180.015 72.3709L178.85 72.9545C178.656 72.4681 178.462 72.1763 178.074 71.8845C177.686 71.5927 177.298 71.4954 176.715 71.4954C176.327 71.4954 175.939 71.5927 175.648 71.6899C175.357 71.7872 175.066 71.9818 174.872 72.2736C174.677 72.5654 174.483 72.7599 174.386 73.149C174.289 73.4408 174.192 73.8299 174.192 74.219V75.6781C174.192 76.4563 174.386 77.0399 174.774 77.6236C175.163 78.1099 175.842 78.4018 176.618 78.4018C177.686 78.4018 178.462 77.9154 178.947 76.8454L179.918 77.5263C179.627 78.2072 179.238 78.6936 178.656 79.0827C178.171 79.2772 177.492 79.4718 176.715 79.4718Z" fill="white"/>
<path d="M185.546 79.1798V78.0125H187.196V68.4798H185.546V67.3125H190.302V68.4798H188.652V78.0125H190.302V79.1798H185.546Z" fill="white"/>
<path d="M192.339 79.1796V70.425H193.698V71.8841H193.795C193.989 71.3977 194.28 71.0087 194.668 70.7168C195.057 70.425 195.542 70.2305 196.221 70.2305C197.094 70.2305 197.871 70.5223 198.356 71.1059C198.841 71.6896 199.132 72.565 199.132 73.5377V79.1796H197.774V73.7323C197.774 72.1759 197.094 71.3977 195.833 71.3977C195.542 71.3977 195.251 71.3977 195.057 71.495C194.765 71.5923 194.571 71.6896 194.377 71.7868C194.183 71.8841 193.989 72.0787 193.892 72.2732C193.795 72.4677 193.698 72.7596 193.698 73.0514V79.1796H192.339Z" fill="white"/>
<path d="M204.47 79.472C203.693 79.472 203.014 79.2774 202.432 78.9856C201.849 78.6938 201.364 78.3047 200.976 77.7211L201.947 76.9429C202.238 77.332 202.626 77.7211 203.111 77.9156C203.596 78.1102 203.984 78.3047 204.567 78.3047C205.149 78.3047 205.634 78.2074 205.925 77.9156C206.216 77.6238 206.41 77.332 206.41 76.8456C206.41 76.5538 206.313 76.1647 206.119 75.9702C205.925 75.7756 205.537 75.5811 204.955 75.4838L204.276 75.3865C203.887 75.2892 203.499 75.2892 203.111 75.0947C202.82 74.9974 202.432 74.8029 202.238 74.6083C201.946 74.4138 201.752 74.122 201.655 73.8302C201.558 73.5383 201.461 73.1492 201.461 72.7602C201.461 72.3711 201.558 71.982 201.655 71.5929C201.849 71.3011 202.044 71.0092 202.335 70.8147C202.626 70.6202 202.917 70.4256 203.305 70.3283C203.693 70.2311 204.081 70.1338 204.567 70.1338C205.246 70.1338 205.828 70.2311 206.313 70.5229C206.799 70.8147 207.187 71.1065 207.575 71.5929L206.702 72.3711C206.508 72.0792 206.216 71.8847 205.828 71.5929C205.44 71.3983 204.955 71.3011 204.373 71.3011C203.79 71.3011 203.402 71.3983 203.111 71.6902C202.82 71.982 202.723 72.2738 202.723 72.6629C202.723 73.052 202.82 73.4411 203.111 73.6356C203.402 73.8302 203.79 73.9274 204.373 74.0247L205.052 74.122C206.022 74.3165 206.702 74.5111 207.09 74.9974C207.478 75.4838 207.672 75.9702 207.672 76.6511C207.672 77.5265 207.381 78.2074 206.799 78.6938C206.216 79.1802 205.44 79.472 204.47 79.472Z" fill="white"/>
<path d="M211.942 79.1799C211.457 79.1799 211.069 79.0826 210.874 78.7908C210.68 78.499 210.583 78.2072 210.583 77.8181V71.6899H209.128V70.5226H209.904C210.195 70.5226 210.389 70.4254 210.486 70.3281C210.583 70.2308 210.68 70.0363 210.68 69.7445V68.0908H211.942V70.5226H213.883V71.6899H211.942V78.0126H213.689V79.1799H211.942Z" fill="white"/>
<path d="M216.309 68.3827C216.018 68.3827 215.824 68.2855 215.63 68.1882C215.436 68.0909 215.436 67.8964 215.436 67.6046V67.41C215.436 67.2155 215.533 67.0209 215.63 66.8264C215.727 66.7291 216.018 66.6318 216.309 66.6318C216.6 66.6318 216.794 66.7291 216.988 66.8264C217.085 66.9237 217.182 67.1182 217.182 67.41V67.6046C217.182 67.7991 217.085 67.9937 216.988 68.1882C216.891 68.3827 216.697 68.3827 216.309 68.3827ZM215.63 70.4255H216.988V79.18H215.63V70.4255Z" fill="white"/>
<path d="M221.646 79.1805C221.161 79.1805 220.773 79.0832 220.579 78.7914C220.385 78.4996 220.191 78.2078 220.191 77.7214V71.5932H218.735V70.426H219.511C219.802 70.426 219.996 70.3287 220.093 70.2314C220.191 70.1341 220.288 69.9396 220.288 69.6478V67.9941H221.549V70.426H223.49V71.5932H221.549V77.916H223.296V79.0832H221.646V79.1805Z" fill="white"/>
<path d="M230.768 77.8185C230.574 78.0131 230.477 78.2076 230.38 78.4021C230.283 78.5967 230.089 78.7912 229.895 78.8885C229.701 79.0831 229.507 79.1803 229.216 79.2776C228.925 79.3749 228.633 79.3749 228.245 79.3749C227.372 79.3749 226.596 79.083 226.11 78.4994C225.625 77.9158 225.334 77.1376 225.334 76.0676V70.4258H226.693V75.8731C226.693 77.4294 227.372 78.2076 228.73 78.2076C229.022 78.2076 229.313 78.2076 229.507 78.1103C229.701 78.0131 229.992 77.9158 230.186 77.8185C230.38 77.7212 230.574 77.5267 230.671 77.3321C230.768 77.1376 230.865 76.8458 230.865 76.554V70.4258H232.224V79.1803H230.865V77.8185H230.768Z" fill="white"/>
<path d="M236.785 79.1805C236.3 79.1805 235.912 79.0832 235.718 78.7914C235.524 78.4996 235.329 78.2078 235.329 77.7214V71.5932H233.874V70.426H234.65C234.941 70.426 235.135 70.3287 235.232 70.2314C235.329 70.1341 235.426 69.9396 235.426 69.6478V67.9941H236.688V70.426H238.629V71.5932H236.688V77.916H238.435V79.0832H236.785V79.1805Z" fill="white"/>
<path d="M243.675 79.4714C243.093 79.4714 242.511 79.3741 242.025 79.1796C241.54 78.985 241.152 78.6932 240.764 78.2068C240.376 77.7205 240.182 77.3314 239.987 76.7477C239.793 76.1641 239.696 75.5805 239.696 74.8023C239.696 74.1214 239.793 73.4405 239.987 72.9541C240.182 72.3705 240.473 71.8841 240.764 71.495C241.152 71.1059 241.54 70.8141 242.025 70.5223C242.511 70.2305 243.093 70.2305 243.675 70.2305C244.257 70.2305 244.743 70.3277 245.228 70.5223C245.713 70.7168 246.101 71.0087 246.392 71.3977C246.683 71.7868 246.975 72.2732 247.169 72.7596C247.363 73.2459 247.46 73.8296 247.46 74.5105V75.1914H241.152V75.5805C241.152 75.9696 241.249 76.2614 241.346 76.6505C241.443 76.9423 241.637 77.2341 241.831 77.5259C242.025 77.8177 242.316 77.915 242.608 78.1096C242.899 78.2068 243.287 78.3041 243.675 78.3041C244.257 78.3041 244.743 78.2068 245.131 77.915C245.519 77.6232 245.907 77.2341 246.101 76.7477L247.072 77.4287C246.78 78.0123 246.392 78.4987 245.713 78.8877C245.228 79.2768 244.548 79.4714 243.675 79.4714ZM243.675 71.3977C243.287 71.3977 242.996 71.495 242.608 71.5923C242.316 71.6896 242.025 71.8841 241.831 72.1759C241.637 72.3705 241.443 72.6623 241.346 73.0514C241.249 73.3432 241.152 73.7323 241.152 74.1214V74.2187H246.004V73.9268C246.004 73.1487 245.81 72.565 245.325 72.0787C244.84 71.5923 244.354 71.3977 243.675 71.3977Z" fill="white"/>
<path d="M257.067 79.4714C256.485 79.4714 255.902 79.3741 255.417 79.1796C254.932 78.985 254.544 78.6932 254.156 78.2068C253.767 77.7205 253.573 77.3314 253.379 76.7477C253.185 76.1641 253.088 75.5805 253.088 74.8023C253.088 74.1214 253.185 73.4405 253.379 72.9541C253.573 72.3705 253.864 71.8841 254.156 71.495C254.544 71.1059 254.932 70.8141 255.417 70.5223C255.902 70.2305 256.485 70.2305 257.067 70.2305C257.649 70.2305 258.231 70.3277 258.717 70.5223C259.202 70.7168 259.59 71.0087 259.978 71.495C260.366 71.8841 260.56 72.3705 260.755 72.9541C260.949 73.5377 261.046 74.1214 261.046 74.8023C261.046 75.4832 260.949 76.1641 260.755 76.7477C260.56 77.3314 260.269 77.8177 259.978 78.2068C259.687 78.5959 259.202 78.8877 258.717 79.1796C258.134 79.2768 257.649 79.4714 257.067 79.4714ZM257.067 78.2068C257.843 78.2068 258.426 78.0123 258.911 77.5259C259.396 77.0396 259.59 76.3587 259.59 75.4832V74.2187C259.59 73.2459 259.396 72.565 258.911 72.1759C258.426 71.6896 257.843 71.495 257.067 71.495C256.291 71.495 255.708 71.6896 255.223 72.1759C254.738 72.6623 254.544 73.3432 254.544 74.2187V75.4832C254.544 76.4559 254.738 77.1368 255.223 77.5259C255.708 77.915 256.291 78.2068 257.067 78.2068Z" fill="white"/>
<path d="M263.084 79.1796V70.425H264.442V71.8841H264.539C264.733 71.3977 265.025 71.0087 265.413 70.7168C265.801 70.425 266.286 70.2305 266.965 70.2305C267.839 70.2305 268.615 70.5223 269.1 71.1059C269.586 71.6896 269.877 72.565 269.877 73.5377V79.1796H268.518V73.7323C268.518 72.1759 267.839 71.3977 266.577 71.3977C266.286 71.3977 265.995 71.3977 265.801 71.495C265.51 71.5923 265.316 71.6896 265.122 71.7868C264.928 71.8841 264.733 72.0787 264.636 72.2732C264.539 72.4677 264.442 72.7596 264.442 73.0514V79.1796H263.084Z" fill="white"/>
<path d="M276.864 79.1798V67.3125H281.619C282.686 67.3125 283.463 67.6043 284.045 68.188C284.627 68.7716 284.918 69.647 284.918 70.717C284.918 71.787 284.627 72.5652 284.045 73.2461C283.463 73.8298 282.686 74.1216 281.619 74.1216H278.319V79.1798H276.864ZM278.319 72.857H281.619C282.201 72.857 282.589 72.6625 282.977 72.3707C283.366 72.0789 283.463 71.6898 283.463 71.1061V70.2307C283.463 69.647 283.269 69.258 282.977 68.9661C282.686 68.6743 282.201 68.4798 281.619 68.4798H278.319V72.857Z" fill="white"/>
<path d="M293.361 79.1796C292.876 79.1796 292.488 79.0823 292.294 78.7905C292.1 78.4987 291.905 78.2068 291.905 77.8177H291.808C291.614 78.4014 291.323 78.7905 290.838 79.0823C290.353 79.3741 289.868 79.4714 289.285 79.4714C288.315 79.4714 287.636 79.2768 287.15 78.7905C286.665 78.3041 286.374 77.6232 286.374 76.845C286.374 75.9696 286.665 75.3859 287.247 74.8996C287.83 74.4132 288.8 74.2187 290.062 74.2187H291.808V73.3432C291.808 72.7596 291.614 72.2732 291.323 71.8841C291.032 71.5923 290.45 71.3977 289.771 71.3977C289.285 71.3977 288.8 71.495 288.412 71.7868C288.024 71.9814 287.733 72.3705 287.539 72.7596L286.762 71.9814C286.956 71.495 287.344 71.1059 287.927 70.7168C288.412 70.425 289.091 70.2305 289.868 70.2305C290.935 70.2305 291.711 70.5223 292.391 71.0087C292.973 71.495 293.264 72.2732 293.264 73.1487V78.0123H294.235V79.1796H293.361ZM289.382 78.3041C289.673 78.3041 290.062 78.3041 290.353 78.2068C290.644 78.1096 290.838 78.0123 291.129 77.915C291.42 77.8177 291.517 77.6232 291.614 77.4287C291.711 77.2341 291.808 77.0396 291.808 76.845V75.3859H289.965C289.188 75.3859 288.606 75.4832 288.218 75.6777C287.83 75.8723 287.636 76.2614 287.636 76.6505V77.0396C287.636 77.4287 287.83 77.8177 288.121 78.0123C288.412 78.1096 288.897 78.3041 289.382 78.3041Z" fill="white"/>
<path d="M297.631 79.1805C297.146 79.1805 296.758 79.0832 296.564 78.7914C296.369 78.4996 296.175 78.2078 296.175 77.7214V71.5932H294.72V70.426H295.496C295.787 70.426 295.981 70.3287 296.078 70.2314C296.175 70.1341 296.272 69.9396 296.272 69.6478V67.9941H297.534V70.426H299.475V71.5932H297.534V77.916H299.281V79.0832H297.631V79.1805Z" fill="white"/>
<path d="M301.319 66.6318H302.677V71.8846H302.774C302.968 71.3982 303.259 71.0091 303.648 70.7173C304.036 70.4255 304.521 70.2309 305.2 70.2309C306.074 70.2309 306.85 70.5227 307.335 71.1064C307.82 71.69 308.112 72.5655 308.112 73.5382V79.18H306.753V73.7327C306.753 72.1764 306.074 71.3982 304.812 71.3982C304.521 71.3982 304.23 71.3982 304.036 71.4955C303.745 71.5927 303.551 71.69 303.357 71.7873C303.162 71.8846 302.968 72.0791 302.871 72.2737C302.774 72.4682 302.677 72.76 302.677 73.0518V79.18H301.319V66.6318Z" fill="white"/>
<path d="M314.128 79.4714C313.546 79.4714 312.964 79.3741 312.478 79.1796C311.993 78.985 311.605 78.6932 311.217 78.2068C310.829 77.7205 310.635 77.3314 310.441 76.7477C310.246 76.1641 310.149 75.5805 310.149 74.8023C310.149 74.1214 310.246 73.4405 310.441 72.9541C310.635 72.3705 310.926 71.8841 311.217 71.495C311.605 71.1059 311.993 70.8141 312.478 70.5223C312.964 70.2305 313.546 70.2305 314.128 70.2305C314.71 70.2305 315.293 70.3277 315.778 70.5223C316.263 70.7168 316.651 71.0087 317.039 71.495C317.428 71.8841 317.622 72.3705 317.816 72.9541C318.01 73.5377 318.107 74.1214 318.107 74.8023C318.107 75.4832 318.01 76.1641 317.816 76.7477C317.622 77.3314 317.331 77.8177 317.039 78.2068C316.748 78.5959 316.263 78.8877 315.778 79.1796C315.196 79.2768 314.71 79.4714 314.128 79.4714ZM314.128 78.2068C314.905 78.2068 315.487 78.0123 315.972 77.5259C316.457 77.0396 316.651 76.3587 316.651 75.4832V74.2187C316.651 73.2459 316.457 72.565 315.972 72.1759C315.487 71.6896 314.905 71.495 314.128 71.495C313.352 71.495 312.77 71.6896 312.284 72.1759C311.799 72.6623 311.605 73.3432 311.605 74.2187V75.4832C311.605 76.4559 311.799 77.1368 312.284 77.5259C312.77 77.915 313.352 78.2068 314.128 78.2068Z" fill="white"/>
<path d="M327.423 80.2496C327.423 81.1251 327.035 81.806 326.356 82.1951C325.676 82.5842 324.609 82.876 323.153 82.876C321.795 82.876 320.824 82.6815 320.242 82.2924C319.66 81.9033 319.369 81.4169 319.369 80.736C319.369 80.2496 319.466 79.8605 319.757 79.666C320.048 79.3742 320.339 79.1796 320.727 79.0824V78.7905C320.242 78.4987 319.951 78.1096 319.951 77.526C319.951 77.0396 320.048 76.7478 320.339 76.5533C320.63 76.3587 321.018 76.1642 321.407 76.0669V75.9696C320.921 75.6778 320.436 75.386 320.145 74.8996C319.854 74.4133 319.757 73.9269 319.757 73.246C319.757 72.7596 319.854 72.3705 319.951 71.9815C320.145 71.5924 320.339 71.3005 320.63 71.0087C320.921 70.7169 321.31 70.5224 321.698 70.4251C322.086 70.3278 322.571 70.2305 323.056 70.2305C323.639 70.2305 324.221 70.3278 324.706 70.6196V70.4251C324.706 70.036 324.803 69.8415 324.9 69.5496C325.094 69.3551 325.288 69.2578 325.676 69.2578H326.938V70.4251H325.288V71.0087C325.579 71.3005 325.871 71.5924 326.065 71.9815C326.259 72.3705 326.356 72.7596 326.356 73.246C326.356 73.7324 326.259 74.1215 326.162 74.5105C325.968 74.8996 325.773 75.1915 325.482 75.4833C325.191 75.7751 324.803 75.9696 324.415 76.0669C324.027 76.1642 323.541 76.2615 323.056 76.2615C322.765 76.2615 322.474 76.2615 322.183 76.1642C321.892 76.2615 321.601 76.3587 321.407 76.5533C321.212 76.7478 321.018 76.9424 321.018 77.2342C321.018 77.526 321.115 77.6233 321.407 77.7205C321.698 77.8178 321.989 77.8178 322.377 77.8178H324.221C325.288 77.8178 326.065 78.0124 326.55 78.4015C327.229 78.8878 327.423 79.4715 327.423 80.2496ZM326.162 80.2496C326.162 79.8605 326.065 79.5687 325.773 79.3742C325.482 79.1796 324.997 79.0824 324.318 79.0824H321.407C320.824 79.3742 320.63 79.7633 320.63 80.2496C320.63 80.6387 320.727 80.9305 321.018 81.2224C321.309 81.5142 321.795 81.6115 322.474 81.6115H323.736C324.512 81.6115 325.094 81.5142 325.482 81.2224C325.871 80.9305 326.162 80.736 326.162 80.2496ZM323.153 75.1915C323.736 75.1915 324.221 75.0942 324.512 74.8024C324.9 74.5105 324.997 74.1215 324.997 73.5378V73.0515C324.997 72.4678 324.803 72.0787 324.512 71.7869C324.221 71.4951 323.736 71.3978 323.153 71.3978C322.571 71.3978 322.086 71.4951 321.795 71.7869C321.504 72.0787 321.31 72.4678 321.31 73.0515V73.5378C321.31 74.1215 321.504 74.5105 321.795 74.8024C322.086 75.0942 322.571 75.1915 323.153 75.1915Z" fill="white"/>
<path d="M332.081 79.4714C331.499 79.4714 330.917 79.3741 330.432 79.1796C329.946 78.985 329.558 78.6932 329.17 78.2068C328.782 77.7205 328.588 77.3314 328.394 76.7477C328.2 76.1641 328.103 75.5805 328.103 74.8023C328.103 74.1214 328.2 73.4405 328.394 72.9541C328.588 72.3705 328.879 71.8841 329.17 71.495C329.558 71.1059 329.946 70.8141 330.432 70.5223C330.917 70.2305 331.499 70.2305 332.081 70.2305C332.664 70.2305 333.149 70.3277 333.634 70.5223C334.119 70.7168 334.507 71.0087 334.799 71.3977C335.09 71.7868 335.381 72.2732 335.575 72.7596C335.769 73.2459 335.866 73.8296 335.866 74.5105V75.1914H329.558V75.5805C329.558 75.9696 329.655 76.2614 329.752 76.6505C329.849 76.9423 330.043 77.2341 330.237 77.5259C330.432 77.8177 330.723 77.915 331.014 78.1096C331.305 78.2068 331.693 78.3041 332.081 78.3041C332.664 78.3041 333.149 78.2068 333.537 77.915C333.925 77.6232 334.313 77.2341 334.507 76.7477L335.478 77.4287C335.187 78.0123 334.798 78.4987 334.119 78.8877C333.634 79.2768 332.858 79.4714 332.081 79.4714ZM332.081 71.3977C331.693 71.3977 331.402 71.495 331.014 71.5923C330.723 71.6896 330.432 71.8841 330.237 72.1759C330.043 72.3705 329.849 72.6623 329.752 73.0514C329.655 73.3432 329.558 73.7323 329.558 74.1214V74.2187H334.41V73.9268C334.41 73.1487 334.216 72.565 333.731 72.0787C333.246 71.5923 332.761 71.3977 332.081 71.3977Z" fill="white"/>
<path d="M337.904 79.1796V70.425H339.262V71.8841H339.359C339.554 71.3977 339.845 71.0087 340.233 70.7168C340.621 70.425 341.106 70.2305 341.786 70.2305C342.659 70.2305 343.435 70.5223 343.92 71.1059C344.406 71.6896 344.697 72.565 344.697 73.5377V79.1796H343.338V73.7323C343.338 72.1759 342.659 71.3977 341.397 71.3977C341.106 71.3977 340.815 71.3977 340.621 71.495C340.33 71.5923 340.136 71.6896 339.942 71.7868C339.748 71.8841 339.554 72.0787 339.456 72.2732C339.359 72.4677 339.262 72.7596 339.262 73.0514V79.1796H337.904Z" fill="white"/>
<path d="M349.937 79.472C349.161 79.472 348.482 79.2774 347.899 78.9856C347.317 78.6938 346.832 78.3047 346.444 77.7211L347.414 76.9429C347.705 77.332 348.093 77.7211 348.579 77.9156C349.064 78.1102 349.452 78.3047 350.034 78.3047C350.616 78.3047 351.102 78.2074 351.393 77.9156C351.684 77.6238 351.878 77.332 351.878 76.8456C351.878 76.5538 351.781 76.1647 351.587 75.9702C351.393 75.7756 351.005 75.5811 350.422 75.4838L349.743 75.3865C349.355 75.2892 348.967 75.2892 348.579 75.0947C348.287 74.9974 347.899 74.8029 347.705 74.6083C347.414 74.4138 347.22 74.122 347.123 73.8302C347.026 73.5383 346.929 73.1492 346.929 72.7602C346.929 72.3711 347.026 71.982 347.123 71.5929C347.317 71.3011 347.511 71.0092 347.802 70.8147C348.093 70.6202 348.384 70.4256 348.773 70.3283C349.161 70.2311 349.549 70.1338 350.034 70.1338C350.714 70.1338 351.296 70.2311 351.781 70.5229C352.266 70.8147 352.654 71.1065 353.043 71.5929L352.169 72.3711C351.975 72.0792 351.684 71.8847 351.296 71.5929C350.908 71.3983 350.422 71.3011 349.84 71.3011C349.258 71.3011 348.87 71.3983 348.579 71.6902C348.287 71.982 348.19 72.2738 348.19 72.6629C348.19 73.052 348.287 73.4411 348.579 73.6356C348.87 73.8302 349.258 73.9274 349.84 74.0247L350.519 74.122C351.49 74.3165 352.169 74.5111 352.557 74.9974C352.945 75.4838 353.14 75.9702 353.14 76.6511C353.14 77.5265 352.848 78.2074 352.266 78.6938C351.781 79.1802 351.005 79.472 349.937 79.472Z" fill="white"/>
<path d="M356.342 77.2344C356.73 77.2344 356.924 77.3316 357.118 77.5262C357.312 77.7207 357.409 77.9153 357.409 78.2071V78.4016C357.409 78.888 357.312 79.3744 357.021 79.958C356.73 80.5416 356.342 81.028 355.857 81.4171H354.692C354.983 81.028 355.274 80.7362 355.468 80.3471C355.663 80.0553 355.857 79.6662 355.954 79.2771C355.76 79.1798 355.566 79.0826 355.468 78.9853C355.371 78.7907 355.274 78.5962 355.274 78.4016V78.2071C355.274 77.9153 355.371 77.6235 355.566 77.5262C355.76 77.4289 355.954 77.2344 356.342 77.2344Z" fill="white"/>
<path d="M132.367 101.845V89.9775H137.122C138.189 89.9775 138.966 90.2694 139.548 90.853C140.13 91.4366 140.421 92.3121 140.421 93.3821C140.421 94.4521 140.13 95.2303 139.548 95.9112C138.966 96.4948 138.189 96.7866 137.122 96.7866H133.822V101.845H132.367ZM133.822 95.5221H137.122C137.704 95.5221 138.092 95.3275 138.48 95.0357C138.869 94.7439 138.966 94.3548 138.966 93.7712V92.8957C138.966 92.3121 138.772 91.923 138.48 91.6312C138.189 91.3394 137.704 91.1448 137.122 91.1448H133.822V95.5221Z" fill="white"/>
<path d="M148.864 101.845C148.379 101.845 147.991 101.747 147.797 101.456C147.602 101.164 147.408 100.872 147.408 100.483H147.311C147.117 101.066 146.826 101.456 146.341 101.747C145.856 102.039 145.371 102.136 144.788 102.136C143.818 102.136 143.139 101.942 142.653 101.456C142.168 100.969 141.877 100.288 141.877 99.5101C141.877 98.6346 142.168 98.051 142.75 97.5646C143.333 97.0782 144.303 96.8837 145.565 96.8837H147.311V96.0082C147.311 95.4246 147.117 94.9382 146.826 94.5491C146.438 94.2573 145.953 94.0628 145.273 94.0628C144.788 94.0628 144.303 94.1601 143.915 94.4519C143.527 94.6464 143.236 95.0355 143.041 95.4246L142.265 94.6464C142.459 94.1601 142.847 93.771 143.43 93.3819C144.012 92.9928 144.594 92.8955 145.371 92.8955C146.438 92.8955 147.214 93.1873 147.894 93.6737C148.476 94.1601 148.767 94.9382 148.767 95.8137V100.677H149.737V101.845H148.864ZM144.982 100.969C145.37 100.969 145.662 100.969 145.953 100.872C146.244 100.775 146.438 100.677 146.729 100.58C146.923 100.386 147.117 100.288 147.214 100.094C147.311 99.8991 147.408 99.7046 147.408 99.5101V98.051H145.565C144.788 98.051 144.206 98.1482 143.818 98.3428C143.43 98.5373 143.236 98.9264 143.236 99.3155V99.7046C143.236 100.094 143.43 100.483 143.721 100.677C144.012 100.872 144.4 100.969 144.982 100.969Z" fill="white"/>
<path d="M151.387 101.845V93.0901H152.746V94.5491H152.843C153.037 94.0628 153.328 93.6737 153.716 93.3819C154.104 93.0901 154.59 92.8955 155.269 92.8955C156.142 92.8955 156.919 93.1873 157.404 93.771C157.889 94.3546 158.18 95.2301 158.18 96.2028V101.845H156.822V96.3973C156.822 94.841 156.142 94.0628 154.881 94.0628C154.59 94.0628 154.299 94.0628 154.104 94.1601C153.813 94.2573 153.619 94.3546 153.425 94.4519C153.231 94.5491 153.037 94.7437 152.94 94.9382C152.843 95.1328 152.746 95.4246 152.746 95.7164V101.845H151.387Z" fill="white"/>
<path d="M166.429 100.483C165.847 101.553 164.973 102.136 163.809 102.136C163.226 102.136 162.741 102.039 162.353 101.844C161.868 101.65 161.577 101.358 161.188 100.969C160.8 100.58 160.606 100.094 160.509 99.5099C160.315 98.9263 160.218 98.3426 160.218 97.5645C160.218 96.7863 160.315 96.2026 160.509 95.619C160.703 95.0354 160.897 94.549 161.188 94.1599C161.48 93.7708 161.868 93.479 162.353 93.2845C162.838 93.0899 163.323 92.9926 163.809 92.9926C164.391 92.9926 164.973 93.0899 165.361 93.3817C165.749 93.6736 166.138 94.0626 166.332 94.6463H166.429V89.3936H167.787V102.039H166.429V100.483ZM164.197 100.872C164.488 100.872 164.779 100.872 165.07 100.774C165.361 100.677 165.555 100.58 165.749 100.385C165.944 100.191 166.138 99.9963 166.235 99.8017C166.332 99.6072 166.429 99.3154 166.429 99.0236V95.7163C166.429 95.5217 166.332 95.2299 166.235 95.0354C166.138 94.8408 165.944 94.6463 165.749 94.4517C165.555 94.2572 165.264 94.1599 165.07 94.0626C164.779 93.9654 164.488 93.9654 164.197 93.9654C163.42 93.9654 162.838 94.1599 162.353 94.6463C161.868 95.1326 161.674 95.8136 161.674 96.5917V98.0508C161.674 98.829 161.868 99.5099 162.353 99.9963C162.838 100.677 163.42 100.872 164.197 100.872Z" fill="white"/>
<path d="M173.804 102.039C173.222 102.039 172.639 101.941 172.154 101.747C171.669 101.552 171.281 101.261 170.893 100.774C170.505 100.288 170.31 99.8988 170.116 99.3151C169.922 98.7315 169.825 98.1478 169.825 97.3697C169.825 96.6888 169.922 96.0078 170.116 95.5215C170.31 94.9378 170.602 94.4515 170.893 94.0624C171.281 93.6733 171.669 93.3815 172.154 93.0897C172.639 92.8951 173.222 92.7979 173.804 92.7979C174.386 92.7979 174.871 92.8951 175.357 93.0897C175.842 93.2842 176.23 93.576 176.521 93.9651C176.812 94.3542 177.103 94.8406 177.298 95.3269C177.492 95.8133 177.589 96.3969 177.589 97.0779V97.7588H171.281V98.1479C171.281 98.5369 171.378 98.8288 171.475 99.2178C171.572 99.5097 171.766 99.8015 171.96 100.093C172.154 100.288 172.445 100.482 172.736 100.677C173.028 100.774 173.416 100.871 173.804 100.871C174.386 100.871 174.871 100.774 175.26 100.482C175.648 100.191 176.036 99.8015 176.23 99.3151L177.2 99.996C176.909 100.58 176.521 101.066 175.842 101.455C175.357 101.941 174.677 102.039 173.804 102.039ZM173.804 94.0624C173.416 94.0624 173.125 94.1597 172.834 94.2569C172.542 94.3542 172.251 94.5488 172.057 94.8406C171.863 95.0351 171.669 95.3269 171.572 95.716C171.475 96.0079 171.378 96.3969 171.378 96.786V96.8833H176.23V96.6888C176.23 95.9106 176.036 95.3269 175.551 94.8406C175.066 94.3542 174.58 94.0624 173.804 94.0624Z" fill="white"/>
<path d="M179.627 101.845V93.0904H180.985V94.5495H181.082C181.179 94.355 181.276 94.1604 181.471 93.9659C181.568 93.7713 181.762 93.5768 181.956 93.4795C182.15 93.285 182.344 93.1877 182.635 93.0904C182.926 92.9932 183.217 92.9932 183.508 92.9932C184.091 92.9932 184.576 93.0904 185.061 93.3823C185.546 93.6741 185.935 94.0632 186.129 94.7441C186.323 94.2577 186.614 93.8686 187.002 93.4795C187.39 93.0904 188.069 92.9932 188.749 92.9932C189.622 92.9932 190.301 93.285 190.884 93.8686C191.369 94.4523 191.66 95.3277 191.66 96.3004V101.942H190.301V96.495C190.301 95.7168 190.107 95.1332 189.816 94.7441C189.525 94.355 189.04 94.1604 188.361 94.1604C188.069 94.1604 187.875 94.1604 187.584 94.2577C187.293 94.355 187.099 94.4523 186.905 94.5495C186.711 94.6468 186.517 94.8413 186.42 95.0359C186.323 95.2304 186.226 95.5223 186.226 95.8141V101.942H184.867V96.495C184.867 95.7168 184.673 95.1332 184.382 94.7441C184.091 94.355 183.605 94.1604 182.926 94.1604C182.635 94.1604 182.441 94.1604 182.15 94.2577C181.859 94.355 181.665 94.4523 181.471 94.5495C181.276 94.6468 181.082 94.8413 180.985 95.0359C180.888 95.2304 180.791 95.5223 180.791 95.8141V101.942H179.627V101.845Z" fill="white"/>
<path d="M194.862 91.0468C194.571 91.0468 194.377 90.9495 194.183 90.8523C193.989 90.755 194.086 90.4632 194.086 90.2686V90.0741C194.086 89.8795 194.183 89.685 194.28 89.4904C194.377 89.3932 194.668 89.2959 194.959 89.2959C195.251 89.2959 195.445 89.3932 195.639 89.4904C195.736 89.5877 195.833 89.7823 195.833 90.0741V90.2686C195.833 90.4632 195.736 90.6577 195.639 90.8523C195.542 91.0468 195.154 91.0468 194.862 91.0468ZM194.183 93.0895H195.542V101.844H194.183V93.0895Z" fill="white"/>
<path d="M201.558 102.039C200.976 102.039 200.394 101.942 199.909 101.747C199.423 101.553 199.035 101.261 198.647 100.872C198.356 100.483 198.065 99.9964 197.871 99.4128C197.677 98.8291 197.58 98.2455 197.58 97.4673C197.58 96.6891 197.677 96.1055 197.871 95.5219C198.065 94.9382 198.259 94.4519 198.647 94.0628C198.938 93.6737 199.423 93.3819 199.909 93.1873C200.394 92.9928 200.976 92.8955 201.558 92.8955C202.432 92.8955 203.111 93.0901 203.693 93.4791C204.179 93.8682 204.567 94.3546 204.858 94.9382L203.693 95.5219C203.499 95.0355 203.305 94.7437 202.917 94.4519C202.529 94.1601 202.141 94.0628 201.558 94.0628C201.17 94.0628 200.782 94.1601 200.491 94.2573C200.2 94.3546 199.909 94.5491 199.715 94.841C199.52 95.0355 199.326 95.3273 199.229 95.7164C199.132 96.0082 199.035 96.3973 199.035 96.7864V98.2455C199.035 99.0237 199.229 99.6073 199.617 100.191C200.006 100.677 200.685 100.969 201.461 100.969C202.529 100.969 203.305 100.483 203.887 99.4128L204.858 100.094C204.567 100.775 204.179 101.261 203.596 101.65C203.111 101.942 202.335 102.039 201.558 102.039Z" fill="white"/>
<path d="M209.71 102.039C208.934 102.039 208.254 101.845 207.672 101.553C207.09 101.261 206.605 100.872 206.217 100.288L207.187 99.5103C207.478 99.8994 207.866 100.288 208.351 100.483C208.837 100.678 209.225 100.872 209.807 100.872C210.389 100.872 210.875 100.775 211.166 100.483C211.457 100.191 211.651 99.8993 211.651 99.413C211.651 99.1212 211.554 98.7321 211.36 98.5375C211.166 98.343 210.778 98.1484 210.195 98.0512L209.516 97.9539C209.128 97.8566 208.74 97.8566 208.351 97.6621C208.06 97.5648 207.672 97.3703 207.478 97.1757C207.187 96.9812 206.993 96.6893 206.896 96.3975C206.799 96.1057 206.702 95.7166 206.702 95.3275C206.702 94.9384 206.799 94.5494 206.896 94.1603C207.09 93.8684 207.284 93.5766 207.575 93.3821C207.866 93.1875 208.157 92.993 208.546 92.8957C208.934 92.7984 209.322 92.7012 209.807 92.7012C210.486 92.7012 211.069 92.7984 211.554 93.0903C212.039 93.3821 212.427 93.6739 212.815 94.1603L211.942 94.9384C211.748 94.6466 211.457 94.4521 211.069 94.1603C210.681 93.9657 210.195 93.8684 209.613 93.8684C209.031 93.8684 208.643 93.9657 208.351 94.2575C208.06 94.5494 207.963 94.8412 207.963 95.2303C207.963 95.6194 208.06 96.0084 208.351 96.203C208.643 96.3975 209.031 96.4948 209.613 96.5921L210.292 96.6894C211.263 96.8839 211.942 97.0784 212.33 97.5648C212.718 98.0512 212.913 98.5375 212.913 99.2184C212.913 100.094 212.621 100.775 212.039 101.261C211.457 101.845 210.681 102.039 209.71 102.039Z" fill="white"/>
<path d="M225.722 101.845C225.237 101.845 224.849 101.747 224.654 101.456C224.46 101.164 224.266 100.872 224.266 100.483H224.169C223.975 101.066 223.684 101.456 223.199 101.747C222.714 102.039 222.228 102.136 221.646 102.136C220.676 102.136 219.996 101.942 219.511 101.456C219.026 100.969 218.735 100.288 218.735 99.5101C218.735 98.6346 219.026 98.051 219.608 97.5646C220.191 97.0782 221.161 96.8837 222.423 96.8837H224.169V96.0082C224.169 95.4246 223.975 94.9382 223.684 94.5491C223.393 94.2573 222.811 94.0628 222.131 94.0628C221.646 94.0628 221.161 94.1601 220.773 94.4519C220.385 94.6464 220.093 95.0355 219.899 95.4246L219.123 94.6464C219.317 94.1601 219.705 93.771 220.288 93.3819C220.773 93.0901 221.452 92.8955 222.228 92.8955C223.296 92.8955 224.072 93.1873 224.752 93.6737C225.334 94.1601 225.625 94.9382 225.625 95.8137V100.677H226.595V101.845H225.722ZM221.84 100.969C222.131 100.969 222.52 100.969 222.811 100.872C223.102 100.775 223.296 100.677 223.587 100.58C223.878 100.483 223.975 100.288 224.072 100.094C224.169 99.8991 224.266 99.7046 224.266 99.5101V98.051H222.423C221.646 98.051 221.064 98.1482 220.676 98.3428C220.288 98.5373 220.093 98.9264 220.093 99.3155V99.7046C220.093 100.094 220.288 100.483 220.579 100.677C220.87 100.775 221.258 100.969 221.84 100.969Z" fill="white"/>
<path d="M228.148 101.845V93.0901H229.507V94.5491H229.604C229.798 94.0628 230.089 93.6737 230.477 93.3819C230.865 93.0901 231.351 92.8955 232.03 92.8955C232.903 92.8955 233.68 93.1873 234.165 93.771C234.65 94.3546 234.941 95.2301 234.941 96.2028V101.845H233.583V96.3973C233.583 94.841 232.903 94.0628 231.642 94.0628C231.351 94.0628 231.059 94.0628 230.865 94.1601C230.574 94.2573 230.38 94.3546 230.186 94.4519C229.992 94.5491 229.798 94.7437 229.701 94.9382C229.604 95.1328 229.507 95.4246 229.507 95.7164V101.845H228.148Z" fill="white"/>
<path d="M243.287 100.483C242.705 101.553 241.831 102.136 240.667 102.136C240.085 102.136 239.599 102.039 239.211 101.844C238.726 101.65 238.435 101.358 238.047 100.969C237.755 100.58 237.464 100.094 237.367 99.5099C237.173 98.9263 237.076 98.3426 237.076 97.5645C237.076 96.7863 237.173 96.2026 237.367 95.619C237.561 95.0354 237.755 94.549 238.047 94.1599C238.338 93.7708 238.726 93.479 239.211 93.2845C239.696 93.0899 240.182 92.9926 240.667 92.9926C241.249 92.9926 241.831 93.0899 242.219 93.3817C242.608 93.6736 242.996 94.0626 243.19 94.6463H243.287V89.3936H244.646V102.039H243.287V100.483ZM241.055 100.872C241.346 100.872 241.637 100.872 241.928 100.774C242.219 100.677 242.414 100.58 242.608 100.385C242.802 100.191 242.996 99.9963 243.093 99.8017C243.19 99.6072 243.287 99.3154 243.287 99.0236V95.7163C243.287 95.5217 243.19 95.2299 243.093 95.0354C242.996 94.8408 242.802 94.6463 242.608 94.4517C242.414 94.2572 242.122 94.1599 241.928 94.0626C241.734 93.9654 241.346 93.9654 241.055 93.9654C240.279 93.9654 239.696 94.1599 239.211 94.6463C238.726 95.1326 238.532 95.8136 238.532 96.5917V98.0508C238.532 98.829 238.726 99.5099 239.211 99.9963C239.696 100.677 240.279 100.872 241.055 100.872Z" fill="white"/>
<path d="M255.029 102.04C254.059 102.04 253.282 101.845 252.603 101.456C251.924 101.067 251.341 100.58 250.856 99.8996L251.924 99.0241C252.312 99.6077 252.797 99.9968 253.282 100.289C253.767 100.58 254.35 100.678 255.126 100.678C255.999 100.678 256.582 100.483 257.067 100.094C257.552 99.705 257.746 99.1214 257.746 98.4405C257.746 97.8568 257.552 97.4677 257.261 97.1759C256.873 96.8841 256.388 96.5923 255.611 96.3977L254.641 96.2032C253.573 95.9114 252.7 95.6196 252.118 95.0359C251.535 94.5496 251.244 93.7714 251.244 92.8959C251.244 92.4096 251.341 91.9232 251.536 91.5341C251.73 91.145 252.021 90.7559 252.312 90.5614C252.7 90.2696 253.088 90.075 253.573 89.9777C254.059 89.8805 254.544 89.7832 255.126 89.7832C255.999 89.7832 256.776 89.9777 257.455 90.2696C258.134 90.5614 258.62 91.0477 259.105 91.7287L258.037 92.5068C257.746 92.0205 257.358 91.7287 256.873 91.4368C256.388 91.145 255.805 91.0477 255.126 91.0477C254.35 91.0477 253.767 91.2423 253.379 91.5341C252.991 91.8259 252.7 92.3123 252.7 92.9932C252.7 93.5768 252.894 93.9659 253.282 94.2577C253.67 94.5496 254.253 94.7441 254.932 94.9387L255.902 95.1332C257.067 95.425 257.94 95.8141 258.426 96.3005C258.911 96.7868 259.202 97.565 259.202 98.4405C259.202 99.0241 259.105 99.5105 258.911 99.8996C258.717 100.289 258.426 100.678 258.134 101.067C257.746 101.359 257.358 101.65 256.873 101.748C256.194 102.04 255.611 102.04 255.029 102.04Z" fill="white"/>
<path d="M264.733 102.039C264.151 102.039 263.569 101.941 263.084 101.747C262.598 101.552 262.21 101.261 261.822 100.774C261.434 100.288 261.24 99.8988 261.046 99.3151C260.852 98.7315 260.755 98.1478 260.755 97.3697C260.755 96.6888 260.852 96.0078 261.046 95.5215C261.24 94.9378 261.531 94.4515 261.822 94.0624C262.21 93.6733 262.598 93.3815 263.084 93.0897C263.569 92.7978 264.151 92.7979 264.733 92.7979C265.316 92.7979 265.898 92.8951 266.383 93.0897C266.868 93.2842 267.256 93.576 267.645 94.0624C268.033 94.4515 268.227 94.9378 268.421 95.5215C268.615 96.1051 268.712 96.6888 268.712 97.3697C268.712 98.0506 268.615 98.7315 268.421 99.3151C268.227 99.8988 267.936 100.385 267.645 100.774C267.354 101.163 266.868 101.455 266.383 101.747C265.898 101.941 265.316 102.039 264.733 102.039ZM264.733 100.871C265.51 100.871 266.092 100.677 266.577 100.191C267.062 99.7042 267.257 99.0233 267.257 98.1479V96.8833C267.257 95.9106 267.062 95.2297 266.577 94.8406C266.092 94.3542 265.51 94.1597 264.733 94.1597C263.957 94.1597 263.375 94.3542 262.89 94.8406C262.404 95.3269 262.21 96.0078 262.21 96.8833V98.1479C262.21 99.1206 262.404 99.8015 262.89 100.191C263.375 100.58 264.054 100.871 264.733 100.871Z" fill="white"/>
<path d="M274.146 102.039C273.564 102.039 272.982 101.942 272.497 101.747C272.012 101.553 271.623 101.261 271.235 100.872C270.944 100.483 270.653 99.9964 270.459 99.4128C270.265 98.8291 270.168 98.2455 270.168 97.4673C270.168 96.6891 270.265 96.1055 270.459 95.5219C270.653 94.9382 270.847 94.4519 271.235 94.0628C271.526 93.6737 272.012 93.3819 272.497 93.1873C272.982 92.9928 273.564 92.8955 274.146 92.8955C275.02 92.8955 275.699 93.0901 276.281 93.4791C276.767 93.8682 277.155 94.3546 277.446 94.9382L276.281 95.5219C276.087 95.0355 275.893 94.7437 275.505 94.4519C275.117 94.1601 274.729 94.0628 274.146 94.0628C273.758 94.0628 273.37 94.1601 273.079 94.2573C272.788 94.3546 272.497 94.5491 272.303 94.841C272.109 95.0355 271.915 95.3273 271.817 95.7164C271.72 96.0082 271.623 96.3973 271.623 96.7864V98.2455C271.623 99.0237 271.817 99.6073 272.206 100.191C272.594 100.677 273.273 100.969 274.049 100.969C275.117 100.969 275.893 100.483 276.476 99.4128L277.446 100.094C277.155 100.775 276.767 101.261 276.184 101.65C275.699 101.942 275.02 102.039 274.146 102.039Z" fill="white"/>
<path d="M279.969 91.0468C279.678 91.0468 279.484 90.9495 279.29 90.8523C279.096 90.755 279.096 90.5604 279.096 90.2686V90.0741C279.096 89.8795 279.193 89.685 279.29 89.4904C279.387 89.3932 279.678 89.2959 279.969 89.2959C280.26 89.2959 280.454 89.3932 280.648 89.4904C280.745 89.5877 280.842 89.7823 280.842 90.0741V90.2686C280.842 90.4632 280.745 90.6577 280.648 90.8523C280.551 91.0468 280.26 91.0468 279.969 91.0468ZM279.29 93.0895H280.648V101.844H279.29V93.0895Z" fill="white"/>
<path d="M286.568 102.039C285.986 102.039 285.404 101.941 284.918 101.747C284.433 101.552 284.045 101.261 283.657 100.774C283.269 100.288 283.075 99.8988 282.88 99.3151C282.686 98.7315 282.589 98.1478 282.589 97.3697C282.589 96.6888 282.686 96.0078 282.88 95.5215C283.075 94.9378 283.366 94.4515 283.657 94.0624C284.045 93.6733 284.433 93.3815 284.918 93.0897C285.404 92.7978 285.986 92.7979 286.568 92.7979C287.15 92.7979 287.636 92.8951 288.121 93.0897C288.606 93.2842 288.994 93.576 289.285 93.9651C289.576 94.3542 289.868 94.8406 290.062 95.3269C290.256 95.8133 290.353 96.3969 290.353 97.0779V97.7588H284.045V98.1479C284.045 98.5369 284.142 98.8288 284.239 99.2178C284.336 99.5097 284.53 99.8015 284.724 100.093C284.918 100.385 285.21 100.482 285.501 100.677C285.792 100.774 286.18 100.871 286.568 100.871C287.15 100.871 287.636 100.774 288.024 100.482C288.412 100.191 288.8 99.8015 288.994 99.3151L289.965 99.996C289.673 100.58 289.285 101.066 288.606 101.455C288.121 101.941 287.441 102.039 286.568 102.039ZM286.568 94.0624C286.18 94.0624 285.889 94.1597 285.501 94.2569C285.21 94.3542 284.918 94.5488 284.724 94.8406C284.53 95.0351 284.336 95.3269 284.239 95.716C284.142 96.0079 284.045 96.3969 284.045 96.786V96.8833H288.897V96.6888C288.897 95.9106 288.703 95.3269 288.218 94.8406C287.733 94.3542 287.344 94.0624 286.568 94.0624Z" fill="white"/>
<path d="M294.331 101.845C293.846 101.845 293.458 101.747 293.264 101.455C293.07 101.164 292.876 100.872 292.876 100.385V94.2573H291.42V93.09H292.197C292.488 93.09 292.682 92.9928 292.779 92.8955C292.876 92.7982 292.973 92.6037 292.973 92.3118V90.6582H294.234V93.09H296.175V94.2573H294.234V100.58H295.981V101.747H294.331V101.845Z" fill="white"/>
<path d="M304.036 93.0898H305.394L301.513 103.887C301.416 104.179 301.319 104.373 301.222 104.568C301.125 104.763 301.027 104.86 300.833 104.957C300.639 105.054 300.542 105.152 300.251 105.152C299.96 105.152 299.766 105.249 299.475 105.249H298.795V104.082H300.154L300.833 102.233L297.534 93.0898H298.893L301.027 99.0235L301.416 100.483H301.513L301.998 99.0235L304.036 93.0898Z" fill="white"/>
</svg>
